<?xml version="1.0" encoding="iso-8859-1"?>
<!-- Generator: Adobe Illustrator 19.0.0, SVG Export Plug-In . SVG Version: 6.00 Build 0)  -->
<svg version="1.1" id="Layer_1" xmlns="http://www.w3.org/2000/svg" xmlns:xlink="http://www.w3.org/1999/xlink" x="0px" y="0px"
	 viewBox="0 0 512 512" style="enable-background:new 0 0 512 512;" xml:space="preserve">
<g>
	<g>
		<path d="M450.246,89.587l40.14-40.14c7.689-7.689,7.689-20.155,0-27.844c-7.688-7.689-20.155-7.689-27.844,0l-40.14,40.14
			C257.605-79.641,0,37.269,0,256.029c0,141.136,114.823,255.959,255.959,255.959C474.591,511.988,591.737,254.508,450.246,89.587z
			 M255.959,472.61c-119.422,0-216.58-97.158-216.58-216.58c0-183.545,214.948-283.249,355.096-166.36l-19.975,19.975
			C252.295,10.495,67.506,97.331,67.506,256.029c0,103.913,84.54,188.453,188.453,188.453
			c158.663,0,245.561-184.755,146.385-306.993l19.975-19.975C539.231,257.69,439.474,472.61,255.959,472.61z M255.957,309.471
			c38.327,0,64.328-39.426,49.046-74.644l20.831-20.831c32.66,54.093-6.516,123.603-69.875,123.603
			c-44.978,0-81.569-36.593-81.569-81.569c0-63.427,69.581-102.495,123.602-69.877l-20.831,20.831
			c-35.209-15.279-74.644,10.725-74.644,49.046C202.516,285.497,226.489,309.471,255.957,309.471z M326.384,157.76
			c-79.635-57.234-191.373-0.041-191.373,98.27c0,66.691,54.258,120.948,120.948,120.948c98.438,0,155.41-111.867,98.27-191.373
			l20.092-20.091c74.708,97.457,5.088,239.592-118.362,239.592c-82.201,0-149.074-66.875-149.074-149.074
			c0-123.505,142.191-193.026,239.592-118.362L326.384,157.76z"/>
	</g>
</g>
<g>
</g>
<g>
</g>
<g>
</g>
<g>
</g>
<g>
</g>
<g>
</g>
<g>
</g>
<g>
</g>
<g>
</g>
<g>
</g>
<g>
</g>
<g>
</g>
<g>
</g>
<g>
</g>
<g>
</g>
</svg>
