<svg width="0" height="0" class="hidden">
  <symbol xmlns="http://www.w3.org/2000/svg" viewBox="32.18585611720149 20.47 223.6851360941233 247.05999999999997" id="c">
    <path d="M252.71 93.61a21.67 21.67 0 0 0-2.65-10.87 20.74 20.74 0 0 0-7.87-7.67Q198.77 50 155.32 25c-7.8-4.51-15.36-4.35-23.11.23C120.69 32 63 65.09 45.81 75.06c-7.08 4.1-10.52 10.38-10.52 18.54v100.8a21.77 21.77 0 0 0 2.55 10.66 20.63 20.63 0 0 0 8 7.88c17.19 10 74.89 43.05 86.41 49.85 7.75 4.58 15.31 4.74 23.12.23q43.41-25.08 86.87-50.09a20.63 20.63 0 0 0 8-7.88 21.77 21.77 0 0 0 2.55-10.66V93.61z" fill="#004482"></path>
    <path d="M252.73 194.4a21.72 21.72 0 0 1-2.55 10.66 18.58 18.58 0 0 1-1.45 2.24L144 144l98.19-68.93a20.72 20.72 0 0 1 7.86 7.67 21.57 21.57 0 0 1 2.66 10.87c.02 33.6.02 100.79.02 100.79z" fill="#00599c"></path>
    <path d="M250.05 82.74L37.81 205.06a21.75 21.75 0 0 1-2.53-10.65V93.6c0-8.16 3.45-14.44 10.52-18.54C63 65.09 120.69 32 132.22 25.21c7.73-4.58 15.3-4.74 23.1-.23q43.41 25.08 86.87 50.09a20.72 20.72 0 0 1 7.86 7.67z" fill="#659ad2"></path>
    <path d="M148.2 184.72a39.91 39.91 0 0 1-35-20.63q-.53-.94-1-1.92A39.94 39.94 0 0 1 179 119.4c.53.64 1 1.31 1.53 2 .24.33.48.66.7 1l35.07-20.2q-1.28-2.06-2.68-4c-.49-.69-1-1.35-1.48-2A79.9 79.9 0 0 0 78 181.92c.34.64.69 1.27 1 1.9a79.91 79.91 0 0 0 136.86 3.62l-34.29-20.73a39.88 39.88 0 0 1-33.37 18.01z" fill="#fff"></path>
  </symbol>
  <symbol version="1.1" xmlns="http://www.w3.org/2000/svg" xmlns:xlink="http://www.w3.org/1999/xlink" preserveAspectRatio="xMidYMid" viewBox="0 0 256 288" id="c++">
    <g>
      <path d="M255.569,84.72 C255.567,79.89 254.534,75.622 252.445,71.959 C250.393,68.357 247.32,65.338 243.198,62.951 C209.173,43.332 175.115,23.773 141.101,4.134 C131.931,-1.16 123.04,-0.967 113.938,4.403 C100.395,12.39 32.59,51.237 12.385,62.94 C4.064,67.757 0.015,75.129 0.013,84.711 C0,124.166 0.013,163.62 0,203.076 C0.002,207.8 0.991,211.985 2.988,215.593 C5.041,219.304 8.157,222.406 12.374,224.847 C32.58,236.55 100.394,275.394 113.934,283.383 C123.04,288.756 131.931,288.948 141.104,283.652 C175.119,264.012 209.179,244.454 243.209,224.835 C247.426,222.395 250.542,219.291 252.595,215.583 C254.589,211.975 255.58,207.79 255.582,203.065 C255.582,203.065 255.582,124.176 255.569,84.72" fill="#5C8DBC"></path>
      <path d="M128.182,143.509 L2.988,215.593 C5.041,219.304 8.157,222.406 12.374,224.847 C32.58,236.55 100.394,275.394 113.934,283.383 C123.04,288.756 131.931,288.948 141.104,283.652 C175.119,264.012 209.179,244.454 243.209,224.835 C247.426,222.395 250.542,219.291 252.595,215.583 L128.182,143.509" fill="#1A4674"></path>
      <path d="M91.101,164.861 C98.386,177.579 112.081,186.157 127.791,186.157 C143.598,186.157 157.371,177.47 164.619,164.616 L128.182,143.509 L91.101,164.861" fill="#1A4674"></path>
      <path d="M255.569,84.72 C255.567,79.89 254.534,75.622 252.445,71.959 L128.182,143.509 L252.595,215.583 C254.589,211.975 255.58,207.79 255.582,203.065 C255.582,203.065 255.582,124.176 255.569,84.72" fill="#1B598E"></path>
      <path d="M248.728,148.661 L239.006,148.661 L239.006,158.385 L229.282,158.385 L229.282,148.661 L219.561,148.661 L219.561,138.94 L229.282,138.94 L229.282,129.218 L239.006,129.218 L239.006,138.94 L248.728,138.94 L248.728,148.661" fill="#FFFFFF"></path>
      <path d="M213.253,148.661 L203.532,148.661 L203.532,158.385 L193.81,158.385 L193.81,148.661 L184.088,148.661 L184.088,138.94 L193.81,138.94 L193.81,129.218 L203.532,129.218 L203.532,138.94 L213.253,138.94 L213.253,148.661" fill="#FFFFFF"></path>
      <path d="M164.619,164.616 C157.371,177.47 143.598,186.157 127.791,186.157 C112.081,186.157 98.386,177.579 91.101,164.861 C87.562,158.681 85.527,151.526 85.527,143.893 C85.527,120.552 104.45,101.63 127.791,101.63 C143.4,101.63 157.023,110.101 164.344,122.689 L201.285,101.417 C186.602,76.071 159.189,59.019 127.791,59.019 C80.915,59.019 42.916,97.019 42.916,143.893 C42.916,159.271 47.007,173.692 54.157,186.131 C68.803,211.611 96.294,228.768 127.791,228.768 C159.346,228.768 186.88,211.542 201.505,185.987 L164.619,164.616" fill="#FFFFFF"></path>
    </g>
  </symbol>
  <symbol fill="none" xmlns="http://www.w3.org/2000/svg" viewBox="0 0 124 141.53" id="css">
    <path d="M10.383 126.892L0 0l124 .255-10.979 126.637-50.553 14.638z" fill="#1b73ba"></path>
    <path d="M62.468 129.275V12.085l51.064.17-9.106 104.85z" fill="#1c88c7"></path>
    <path d="M100.851 27.064H22.298l2.128 15.318h37.276l-36.68 15.745 2.127 14.808h54.043l-1.958 20.68-18.298 3.575-16.595-4.255-1.277-11.745H27.83l2.042 24.426 32.681 9.106 31.32-9.957 4-47.745H64.765l36.085-14.978z" fill="#fff"></path>
  </symbol>
  <symbol id="github" xmlns="http://www.w3.org/2000/svg" viewBox="0 0 64 64">
    <path stroke-width="0" fill="currentColor" d="M32 0 C14 0 0 14 0 32 0 53 19 62 22 62 24 62 24 61 24 60 L24 55 C17 57 14 53 13 50 13 50 13 49 11 47 10 46 6 44 10 44 13 44 15 48 15 48 18 52 22 51 24 50 24 48 26 46 26 46 18 45 12 42 12 31 12 27 13 24 15 22 15 22 13 18 15 13 15 13 20 13 24 17 27 15 37 15 40 17 44 13 49 13 49 13 51 20 49 22 49 22 51 24 52 27 52 31 52 42 45 45 38 46 39 47 40 49 40 52 L40 60 C40 61 40 62 42 62 45 62 64 53 64 32 64 14 50 0 32 0 Z"></path>
  </symbol>
  <symbol xmlns="http://www.w3.org/2000/svg" viewBox="0 0 48 48" id="gmail">
    <path fill="#4caf50" d="M45,16.2l-5,2.75l-5,4.75L35,40h7c1.657,0,3-1.343,3-3V16.2z"></path>
    <path fill="#1e88e5" d="M3,16.2l3.614,1.71L13,23.7V40H6c-1.657,0-3-1.343-3-3V16.2z"></path>
    <polygon fill="#e53935" points="35,11.2 24,19.45 13,11.2 12,17 13,23.7 24,31.95 35,23.7 36,17"></polygon>
    <path fill="#c62828" d="M3,12.298V16.2l10,7.5V11.2L9.876,8.859C9.132,8.301,8.228,8,7.298,8h0C4.924,8,3,9.924,3,12.298z"></path>
    <path fill="#fbc02d" d="M45,12.298V16.2l-10,7.5V11.2l3.124-2.341C38.868,8.301,39.772,8,40.702,8h0 C43.076,8,45,9.924,45,12.298z"></path>
  </symbol>
  <symbol version="1.1" xmlns="http://www.w3.org/2000/svg" xmlns:xlink="http://www.w3.org/1999/xlink" x="0px" y="0px" enable-background="new 0 0 2000 2000" xml:space="preserve" viewBox="0 0 2000 2000" id="html">
    <g id="Logo_artwork"></g>
    <g id="Guides_to_delete">
      <g>
        <polygon fill="#E34E26" points="352.732,1718.4 208.627,101.984 1791.373,101.984 1647.093,1718.528 999.615,1898.016 		"></polygon>
        <polygon fill="#EF662A" points="1000,234.108 1000,1760.716 1523.565,1615.585 1646.918,234.108 		"></polygon>
        <polygon fill="#FFFFFF" points="503.468,432.378 556.906,1031.897 1244.048,1031.897 1220.988,1289.041 999.744,1348.857 
			778.919,1289.128 764.155,1124.017 565.155,1124.017 593.611,1442.302 999.697,1555.086 1406.296,1442.302 1460.806,833.669 
			738.229,833.669 720.086,630.648 1478.168,630.648 1478.773,630.648 1496.532,432.378 		"></polygon>
        <g>
          <polygon fill="#EBEBEB" points="1000,432.378 503.468,432.378 556.906,1031.897 1000,1031.897 1000,833.669 738.229,833.669 
				720.086,630.648 1000,630.648 			"></polygon>
          <polygon fill="#EBEBEB" points="1000,1348.771 999.744,1348.857 778.919,1289.128 764.155,1124.017 565.155,1124.017 
				593.611,1442.302 999.697,1555.086 1000,1555.001 			"></polygon>
        </g>
      </g>
    </g>
  </symbol>
  <symbol xmlns="http://www.w3.org/2000/svg" viewBox="0 0 48 48" id="linkedin">
    <path fill="#0288d1" d="M24 4A20 20 0 1 0 24 44A20 20 0 1 0 24 4Z"></path>
    <path fill="#fff" d="M14 19H18V34H14zM15.988 17h-.022C14.772 17 14 16.11 14 14.999 14 13.864 14.796 13 16.011 13c1.217 0 1.966.864 1.989 1.999C18 16.11 17.228 17 15.988 17zM35 24.5c0-3.038-2.462-5.5-5.5-5.5-1.862 0-3.505.928-4.5 2.344V19h-4v15h4v-8c0-1.657 1.343-3 3-3s3 1.343 3 3v8h4C35 34 35 24.921 35 24.5z"></path>
  </symbol>
  <symbol version="1.1" id="objective" xmlns="http://www.w3.org/2000/svg" xmlns:xlink="http://www.w3.org/1999/xlink" x="0px" y="0px" xml:space="preserve" viewBox="0 0 512 512">
    <g>
      <g>
        <path d="M450.246,89.587l40.14-40.14c7.689-7.689,7.689-20.155,0-27.844c-7.688-7.689-20.155-7.689-27.844,0l-40.14,40.14
			C257.605-79.641,0,37.269,0,256.029c0,141.136,114.823,255.959,255.959,255.959C474.591,511.988,591.737,254.508,450.246,89.587z
			 M255.959,472.61c-119.422,0-216.58-97.158-216.58-216.58c0-183.545,214.948-283.249,355.096-166.36l-19.975,19.975
			C252.295,10.495,67.506,97.331,67.506,256.029c0,103.913,84.54,188.453,188.453,188.453
			c158.663,0,245.561-184.755,146.385-306.993l19.975-19.975C539.231,257.69,439.474,472.61,255.959,472.61z M255.957,309.471
			c38.327,0,64.328-39.426,49.046-74.644l20.831-20.831c32.66,54.093-6.516,123.603-69.875,123.603
			c-44.978,0-81.569-36.593-81.569-81.569c0-63.427,69.581-102.495,123.602-69.877l-20.831,20.831
			c-35.209-15.279-74.644,10.725-74.644,49.046C202.516,285.497,226.489,309.471,255.957,309.471z M326.384,157.76
			c-79.635-57.234-191.373-0.041-191.373,98.27c0,66.691,54.258,120.948,120.948,120.948c98.438,0,155.41-111.867,98.27-191.373
			l20.092-20.091c74.708,97.457,5.088,239.592-118.362,239.592c-82.201,0-149.074-66.875-149.074-149.074
			c0-123.505,142.191-193.026,239.592-118.362L326.384,157.76z"></path>
      </g>
    </g>
    <g></g>
    <g></g>
    <g></g>
    <g></g>
    <g></g>
    <g></g>
    <g></g>
    <g></g>
    <g></g>
    <g></g>
    <g></g>
    <g></g>
    <g></g>
    <g></g>
    <g></g>
  </symbol>
  <symbol version="1.1" id="skills" xmlns="http://www.w3.org/2000/svg" xmlns:xlink="http://www.w3.org/1999/xlink" x="0px" y="0px" xml:space="preserve" viewBox="0 0 32 32">
    <g>
      <g>
        <path d="M15.499,3.063L15.5,11c0,0.276,0.224,0.5,0.5,0.5l0,11c-0.276,0-0.5,0.224-0.5,0.5
			l-0.001,5.947c0,0.879-0.776,1.581-1.673,1.497C6.947,29.79,2.5,24.708,2.5,17.5c0-8.099,5.088-15.296,11.339-15.936
			C14.676,1.478,15.499,2.178,15.499,3.063z"></path>
      </g>
      <path d="M16.501,3.063L16.5,11c0,0.276-0.224,0.5-0.5,0.5l0,11c0.276,0,0.5,0.224,0.5,0.5
		l0.001,5.947c0,0.879,0.776,1.581,1.673,1.497C25.053,29.79,29.5,24.708,29.5,17.5c0-8.099-5.088-15.296-11.339-15.936
		C17.324,1.478,16.501,2.178,16.501,3.063z"></path>
      <path d="M21.01,13.125h1c0,1.318-0.86,2.428-2.045,2.83c0.64,0.84,1.035,1.876,1.035,3.011h-1
		c0-2.206-1.794-4-4-4v-1c1.198,0,2.283,0.441,3.145,1.145C20.184,15.041,21.01,14.182,21.01,13.125z M12.009,20.625h1
		c0-1.103,0.897-2,2-2h1v-1h-1C13.355,17.625,12.009,18.971,12.009,20.625z M30,17.5c0,7.485-4.625,12.761-11.782,13.442
		c-0.066,0.006-0.131,0.009-0.196,0.009c-1.115,0-2.023-0.897-2.023-2.004c0,1.108-0.907,2.004-2.022,2.004
		c-0.065,0-0.13-0.003-0.196-0.009C6.625,30.261,2,24.985,2,17.5C2,9.154,7.287,1.782,13.785,1.067
		c0.073-0.008,0.146-0.012,0.218-0.012c1.101,0,1.997,0.907,1.998,2.008c0-1.103,0.896-2.008,1.997-2.008
		c0.072,0,0.144,0.004,0.218,0.012C24.714,1.782,30,9.154,30,17.5z M26.134,26c1.773-2.063,2.854-4.891,2.864-8.449
		C27.307,17.797,26,19.242,26,21h-1c0-2.298,1.737-4.177,3.963-4.446c-0.204-3.889-1.639-7.614-3.847-10.321
		C24.533,6.945,24.2,7.818,24.2,8.75c0,1.068,0.416,2.073,1.172,2.828l-0.707,0.707c-0.72-0.72-1.189-1.621-1.373-2.599
		c-0.403,0.189-0.836,0.295-1.273,0.295c-0.768,0-1.536-0.292-2.121-0.877l0.707-0.707c0.712,0.712,1.83,0.766,2.613,0.175
		c0.041-1.152,0.474-2.227,1.229-3.092c-1.776-1.888-3.954-3.157-6.34-3.42c-0.036-0.004-0.073-0.006-0.108-0.006
		c-0.543,0-0.997,0.451-0.997,1.008V11c0,0.552-0.428,1-1.001,1s-1-0.448-1-1V3.063c0-0.557-0.454-1.008-0.997-1.008
		c-0.036,0-0.072,0.002-0.108,0.006c-1.187,0.131-2.321,0.514-3.383,1.092c0.016,1.09,0.904,1.972,1.997,1.972v1
		c-1.448,0-2.659-1.031-2.939-2.397c-2.107,1.447-3.846,3.709-5.008,6.369c1.511,0.141,2.856,0.847,3.833,1.901
		c0.848-0.225,1.623-0.656,2.251-1.283l0.707,0.707c-0.653,0.652-1.437,1.136-2.297,1.43C9.651,13.783,10,14.884,10,16.068H9
		c0-2.701-2.157-4.895-4.837-4.984C3.423,13.09,3,15.277,3,17.5c0,4.258,1.519,7.486,3.938,9.596
		c1.513-1.564,1.503-4.063-0.041-5.607l0.707-0.707c0.736,0.736,1.192,1.646,1.372,2.6c1.112-0.523,2.477-0.335,3.395,0.583
		l-0.707,0.707c-0.714-0.713-1.832-0.766-2.616-0.173c-0.042,1.163-0.485,2.307-1.331,3.216c1.741,1.259,3.855,2.013,6.16,2.232
		c0.034,0.003,0.068,0.005,0.101,0.005c0.555,0,1.022-0.437,1.022-1.004V23c0-0.552,0.448-1,1-1h0.001c0.552,0,1,0.448,1,1v5.948
		c0,0.567,0.467,1.004,1.022,1.004c0.033,0,0.067-0.002,0.101-0.005c2.74-0.261,5.207-1.281,7.1-3.003
		c-1.424-0.185-2.689-0.87-3.619-1.874c-0.848,0.225-1.624,0.657-2.251,1.283l-0.707-0.707c0.652-0.652,1.436-1.135,2.297-1.43
		C20.349,23.286,20,22.184,20,21h1c0,2.757,2.243,5,5,5H26.134z"></path>
    </g>
  </symbol>
  <symbol xmlns="http://www.w3.org/2000/svg" fill-rule="evenodd" clip-rule="evenodd" viewBox="0 0 48 48" id="whatsapp">
    <path fill="#fff" d="M4.868,43.303l2.694-9.835C5.9,30.59,5.026,27.324,5.027,23.979C5.032,13.514,13.548,5,24.014,5c5.079,0.002,9.845,1.979,13.43,5.566c3.584,3.588,5.558,8.356,5.556,13.428c-0.004,10.465-8.522,18.98-18.986,18.98c-0.001,0,0,0,0,0h-0.008c-3.177-0.001-6.3-0.798-9.073-2.311L4.868,43.303z"></path>
    <path fill="#fff" d="M4.868,43.803c-0.132,0-0.26-0.052-0.355-0.148c-0.125-0.127-0.174-0.312-0.127-0.483l2.639-9.636c-1.636-2.906-2.499-6.206-2.497-9.556C4.532,13.238,13.273,4.5,24.014,4.5c5.21,0.002,10.105,2.031,13.784,5.713c3.679,3.683,5.704,8.577,5.702,13.781c-0.004,10.741-8.746,19.48-19.486,19.48c-3.189-0.001-6.344-0.788-9.144-2.277l-9.875,2.589C4.953,43.798,4.911,43.803,4.868,43.803z"></path>
    <path fill="#cfd8dc" d="M24.014,5c5.079,0.002,9.845,1.979,13.43,5.566c3.584,3.588,5.558,8.356,5.556,13.428c-0.004,10.465-8.522,18.98-18.986,18.98h-0.008c-3.177-0.001-6.3-0.798-9.073-2.311L4.868,43.303l2.694-9.835C5.9,30.59,5.026,27.324,5.027,23.979C5.032,13.514,13.548,5,24.014,5 M24.014,42.974C24.014,42.974,24.014,42.974,24.014,42.974C24.014,42.974,24.014,42.974,24.014,42.974 M24.014,42.974C24.014,42.974,24.014,42.974,24.014,42.974C24.014,42.974,24.014,42.974,24.014,42.974 M24.014,4C24.014,4,24.014,4,24.014,4C12.998,4,4.032,12.962,4.027,23.979c-0.001,3.367,0.849,6.685,2.461,9.622l-2.585,9.439c-0.094,0.345,0.002,0.713,0.254,0.967c0.19,0.192,0.447,0.297,0.711,0.297c0.085,0,0.17-0.011,0.254-0.033l9.687-2.54c2.828,1.468,5.998,2.243,9.197,2.244c11.024,0,19.99-8.963,19.995-19.98c0.002-5.339-2.075-10.359-5.848-14.135C34.378,6.083,29.357,4.002,24.014,4L24.014,4z"></path>
    <path fill="#40c351" d="M35.176,12.832c-2.98-2.982-6.941-4.625-11.157-4.626c-8.704,0-15.783,7.076-15.787,15.774c-0.001,2.981,0.833,5.883,2.413,8.396l0.376,0.597l-1.595,5.821l5.973-1.566l0.577,0.342c2.422,1.438,5.2,2.198,8.032,2.199h0.006c8.698,0,15.777-7.077,15.78-15.776C39.795,19.778,38.156,15.814,35.176,12.832z"></path>
    <path fill="#fff" fill-rule="evenodd" d="M19.268,16.045c-0.355-0.79-0.729-0.806-1.068-0.82c-0.277-0.012-0.593-0.011-0.909-0.011c-0.316,0-0.83,0.119-1.265,0.594c-0.435,0.475-1.661,1.622-1.661,3.956c0,2.334,1.7,4.59,1.937,4.906c0.237,0.316,3.282,5.259,8.104,7.161c4.007,1.58,4.823,1.266,5.693,1.187c0.87-0.079,2.807-1.147,3.202-2.255c0.395-1.108,0.395-2.057,0.277-2.255c-0.119-0.198-0.435-0.316-0.909-0.554s-2.807-1.385-3.242-1.543c-0.435-0.158-0.751-0.237-1.068,0.238c-0.316,0.474-1.225,1.543-1.502,1.859c-0.277,0.317-0.554,0.357-1.028,0.119c-0.474-0.238-2.002-0.738-3.815-2.354c-1.41-1.257-2.362-2.81-2.639-3.285c-0.277-0.474-0.03-0.731,0.208-0.968c0.213-0.213,0.474-0.554,0.712-0.831c0.237-0.277,0.316-0.475,0.474-0.791c0.158-0.317,0.079-0.594-0.04-0.831C20.612,19.329,19.69,16.983,19.268,16.045z" clip-rule="evenodd"></path>
  </symbol>
</svg>